<svg id="Instagram-01" xmlns="http://www.w3.org/2000/svg" width="450.642" height="450.642" viewBox="0 0 450.642 450.642">
  <g id="Elipse_1" data-name="Elipse 1" fill="#fff" stroke="#707070" stroke-width="1">
    <circle cx="225" cy="225" r="225" stroke="none"/>
    <circle cx="225" cy="225" r="224.5" fill="none"/>
  </g>
  <path id="Trazado_1" data-name="Trazado 1" d="M293.256,250.128A43.128,43.128,0,1,1,250.128,207,43.085,43.085,0,0,1,293.256,250.128Z" transform="translate(-24.807 -24.807)" fill="#ffd400"/>
  <path id="Trazado_2" data-name="Trazado 2" d="M342.414,165.237a42.892,42.892,0,0,0-24.556-24.556c-4.577-1.76-11.442-3.873-24.028-4.489-13.642-.616-17.779-.792-52.282-.792-34.59,0-38.639.088-52.282.792-12.586.616-19.452,2.729-24.028,4.489a42.892,42.892,0,0,0-24.556,24.556c-1.76,4.577-3.873,11.442-4.489,24.028-.616,13.642-.792,17.691-.792,52.282,0,34.5.176,38.639.792,52.282.616,12.586,2.64,19.452,4.489,24.028a42.892,42.892,0,0,0,24.556,24.556c4.577,1.76,11.442,3.873,24.028,4.489,13.643.616,17.691.792,52.282.792s38.639-.088,52.282-.792c12.586-.616,19.452-2.64,24.028-4.489a42.726,42.726,0,0,0,24.556-24.556c1.76-4.577,3.873-11.442,4.489-24.028.616-13.642.792-17.779.792-52.282,0-34.59-.088-38.639-.792-52.282C346.287,176.68,344.174,169.814,342.414,165.237ZM241.547,308A66.452,66.452,0,1,1,308,241.547,66.449,66.449,0,0,1,241.547,308ZM310.64,188.034a15.491,15.491,0,1,1,15.491-15.491A15.514,15.514,0,0,1,310.64,188.034Z" transform="translate(-16.226 -16.226)" fill="#ffd400"/>
  <path id="Trazado_3" data-name="Trazado 3" d="M225.321,0C100.866,0,0,100.866,0,225.321S100.866,450.642,225.321,450.642,450.642,349.776,450.642,225.321,349.776,0,225.321,0ZM353.913,278.659c-.616,13.73-2.817,23.148-5.985,31.422a65.977,65.977,0,0,1-37.847,37.847c-8.185,3.169-17.6,5.369-31.422,5.985s-18.219.792-53.338.792-39.519-.176-53.338-.792c-13.731-.616-23.148-2.817-31.422-5.985a66.732,66.732,0,0,1-37.847-37.847c-3.169-8.185-5.369-17.6-5.985-31.422s-.792-18.219-.792-53.338.176-39.519.792-53.338c.616-13.731,2.817-23.148,5.985-31.422a66.732,66.732,0,0,1,37.847-37.847c8.273-3.169,17.6-5.369,31.422-5.985s18.219-.792,53.338-.792,39.519.176,53.338.792c13.73.616,23.148,2.817,31.422,5.985a66.732,66.732,0,0,1,37.847,37.847c3.169,8.273,5.369,17.6,5.985,31.422s.792,18.219.792,53.338S354.529,264.84,353.913,278.659Z" fill="#ffd400"/>
</svg>
