<?xml version="1.0" encoding="utf-8"?>
<!-- Generator: Adobe Illustrator 24.1.0, SVG Export Plug-In . SVG Version: 6.00 Build 0)  -->
<svg version="1.1" id="Capa_1" xmlns="http://www.w3.org/2000/svg" xmlns:xlink="http://www.w3.org/1999/xlink" x="0px" y="0px"
	 viewBox="0 0 300 300" style="enable-background:new 0 0 300 300;" xml:space="preserve">
<style type="text/css">
	.st0{fill:#FFD400;}
	.st1{opacity:0.25;}
	.st2{clip-path:url(#SVGID_2_);}
	.st3{opacity:0.45;fill:#000033;}
	.st4{fill:#0F0F0E;}
	.st5{fill:#000033;}
	.st6{fill:none;stroke:#FF6D00;stroke-width:2;stroke-miterlimit:10;}
	.st7{fill:#FF6D00;}
	.st8{clip-path:url(#SVGID_16_);}
	.st9{clip-path:url(#SVGID_18_);}
	.st10{fill:url(#SVGID_21_);}
	.st11{fill:none;stroke:#FFD400;stroke-width:2;stroke-miterlimit:10;}
	.st12{fill:#FFFFFF;}
	.st13{clip-path:url(#SVGID_23_);}
	.st14{fill:url(#SVGID_24_);}
	.st15{fill:url(#SVGID_25_);}
	.st16{fill:none;stroke:#FFD400;stroke-width:3;stroke-miterlimit:10;}
	.st17{fill:url(#SVGID_26_);}
	.st18{fill:url(#SVGID_27_);}
	.st19{opacity:0.4;}
	.st20{fill:url(#SVGID_28_);}
	.st21{opacity:0.75;fill:url(#SVGID_29_);}
	.st22{fill:none;stroke:#FFFFFF;stroke-width:3;stroke-miterlimit:10;}
	.st23{opacity:0.8;fill:#FFD400;}
	.st24{fill:#00005B;}
	.st25{fill:#E9E9E9;}
	.st26{opacity:0.5;}
	.st27{fill:#6F6F6E;}
	.st28{clip-path:url(#SVGID_31_);}
	.st29{fill:#222220;}
	.st30{opacity:0.4;fill:#222220;}
	.st31{fill:none;stroke:#838382;stroke-miterlimit:10;}
	.st32{fill:#FFFFFF;stroke:#FFD400;stroke-width:2;stroke-miterlimit:10;}
	.st33{fill:url(#SVGID_32_);}
</style>
<g class="st26">
	<path class="st12" d="M177.06,138.83l-7.9-15.8c-0.78-1.55-2.36-2.53-4.1-2.53h-45.83c-1.74,0-3.32,0.98-4.1,2.53l-7.9,15.8h-6.33
		c-2.53,0-4.58,2.05-4.58,4.58v142.07c0,2.53,2.05,4.58,4.58,4.58h82.49c2.53,0,4.58-2.05,4.58-4.58V143.42
		c0-2.53-2.05-4.58-4.58-4.58H177.06z M122.07,129.67h40.16l4.58,9.17h-49.33L122.07,129.67z M178.81,148v13.75h-73.33V148H178.81z
		 M105.49,280.9V170.91h73.33V280.9H105.49z"/>
	<path class="st12" d="M119.24,184.66h9.17v9.17h-9.17V184.66z"/>
	<path class="st12" d="M137.57,184.66h9.17v9.17h-9.17V184.66z"/>
	<path class="st12" d="M119.24,202.99h9.17v9.17h-9.17V202.99z"/>
	<path class="st12" d="M137.57,202.99h9.17v9.17h-9.17V202.99z"/>
	<path class="st12" d="M119.24,221.33h9.17v9.17h-9.17V221.33z"/>
	<path class="st12" d="M137.57,221.33h9.17v9.17h-9.17V221.33z"/>
	<path class="st12" d="M119.24,239.66h9.17v9.17h-9.17V239.66z"/>
	<path class="st12" d="M137.57,239.66h9.17v9.17h-9.17V239.66z"/>
	<path class="st12" d="M119.24,257.99h9.17v9.17h-9.17V257.99z"/>
	<path class="st12" d="M137.57,257.99h9.17v9.17h-9.17V257.99z"/>
	<path class="st12" d="M155.9,184.66h9.17v9.17h-9.17V184.66z"/>
	<path class="st12" d="M155.9,202.99h9.17v9.17h-9.17V202.99z"/>
	<path class="st12" d="M155.9,221.33h9.17v9.17h-9.17V221.33z"/>
	<path class="st12" d="M155.9,239.66h9.17v9.17h-9.17V239.66z"/>
	<path class="st12" d="M155.9,257.99h9.17v9.17h-9.17V257.99z"/>
	<path class="st12" d="M18.41,125.09h18.33c2.53,0,4.58-2.05,4.58-4.58V93h9.17v192.48c0,2.53,2.05,4.58,4.58,4.58h27.5
		c2.53,0,4.58-2.05,4.58-4.58V134.25h4.58c2.15,0,4.01-1.49,4.47-3.59L104.58,93h74.23c2.53,0,4.58-2.05,4.58-4.58
		c0-1.07-0.38-2.11-1.06-2.93l-22.91-27.5c-0.87-1.04-2.16-1.65-3.52-1.65h-47.11l-12.7-38.11c-0.62-1.87-2.38-3.13-4.35-3.13H77.99
		c-0.96,0-1.89,0.3-2.66,0.85l0,0l-0.02,0.01l0,0L44.44,38.01H32.16c-1.22,0-2.38,0.48-3.24,1.34L15.17,53.1
		c-0.86,0.86-1.34,2.03-1.34,3.24v64.16C13.83,123.03,15.88,125.09,18.41,125.09z M50.49,44.95L69.19,31.6l-9.29,27.88
		c0,0.01,0,0.02-0.01,0.03c-0.11,0.33-0.18,0.66-0.21,1c-0.01,0.06-0.01,0.11-0.01,0.17c0,0.08-0.01,0.17-0.01,0.25v4.58h-9.17
		V44.95z M118.62,65.51l-15.28,18.33h-2.44V65.51H118.62z M130.55,65.51h2.44v18.33h-17.71L130.55,65.51z M78.61,83.84l13.13-15.76
		v15.76H78.61z M68.82,81.26V65.51h13.13L68.82,81.26z M59.66,74.67v9.17H22.99v-9.17H59.66z M32.16,115.92h-9.17V93h9.17V115.92z
		 M59.66,189.86l18.33,15.28v2.44H59.66V189.86z M59.66,231.11l18.33,15.28v2.44H59.66V231.11z M59.66,219.18v-2.44h18.33v17.71
		L59.66,219.18z M59.66,177.93v-2.44h18.33v17.71L59.66,177.93z M77.99,166.33H59.66v-17.71l18.33,15.28V166.33z M59.66,280.9
		v-22.91h18.33v22.91H59.66z M77.99,151.96l-18.33-15.28v-2.44h18.33V151.96z M59.66,125.09V93h9.17v18.33
		c0,2.53,2.05,4.58,4.58,4.58H90.1l-2.04,9.17H59.66z M92.14,106.75H77.99V93h17.2L92.14,106.75z M169.03,83.84h-26.88V65.51h11.6
		L169.03,83.84z M88.44,24.26l10.69,32.08H70.6l10.69-32.08H88.44z M34.06,47.18h7.27v18.33H22.99v-7.27L34.06,47.18z"/>
	<path class="st12" d="M284.22,125.09h-18.54c-2.18,0.01-4.15-1.31-4.98-3.32l-0.06-0.14c-0.84-2.02-0.38-4.34,1.17-5.89
		l13.11-13.11c1.79-1.79,1.79-4.69,0-6.48c0,0,0,0,0,0L249,70.23c-1.79-1.79-4.69-1.79-6.48,0l-13.11,13.11
		c-1.54,1.55-3.87,2.01-5.89,1.16l-0.13-0.05c-2.02-0.83-3.34-2.8-3.33-4.98V60.92c0-2.53-2.05-4.58-4.58-4.58h-27.5v9.17h22.91
		v13.96c0,2.14,0.47,4.25,1.37,6.18c-4.95-1.2-10.02-1.81-15.12-1.8V93c30.37,0,55,24.62,55,55s-24.62,55-55,55v9.17
		c5.09,0,10.17-0.6,15.12-1.8c-0.9,1.93-1.37,4.04-1.37,6.18v13.96h-13.75v9.17h18.33c2.53,0,4.58-2.05,4.58-4.58v-18.54
		c-0.01-2.18,1.31-4.16,3.33-4.99l0.13-0.05c2.02-0.84,4.34-0.38,5.89,1.17l13.11,13.11c1.79,1.79,4.69,1.79,6.48,0l25.92-25.92
		c1.79-1.79,1.79-4.69,0-6.48c0,0,0,0,0,0l-13.11-13.11c-1.55-1.55-2.01-3.88-1.16-5.9l0.05-0.12c0.83-2.02,2.8-3.33,4.98-3.33
		h18.54c2.53,0,4.58-2.05,4.58-4.58v-36.66C288.8,127.14,286.75,125.09,284.22,125.09z M230.52,93.22c2.02-0.73,3.85-1.89,5.36-3.41
		l9.87-9.87l19.44,19.44l-9.87,9.87c-1.52,1.51-2.68,3.35-3.41,5.36C246.58,105.9,239.25,98.56,230.52,93.22z M265.2,196.61
		l-19.44,19.44l-9.87-9.87c-1.51-1.52-3.35-2.68-5.36-3.41c8.72-5.34,16.06-12.67,21.4-21.4c0.73,2.02,1.89,3.85,3.41,5.36
		L265.2,196.61z M279.64,161.75h-13.96c-2.14,0-4.25,0.47-6.18,1.37c2.41-9.94,2.41-20.3,0-30.24c1.93,0.9,4.04,1.37,6.18,1.37
		h13.96V161.75z"/>
	<path class="st12" d="M197.15,166.33v9.17c15.19,0,27.5-12.31,27.5-27.5s-12.31-27.5-27.5-27.5v9.17
		c10.12,0,18.33,8.21,18.33,18.33S207.27,166.33,197.15,166.33z"/>
</g>
</svg>
