<?xml version="1.0" encoding="utf-8"?>
<!-- Generator: Adobe Illustrator 24.1.0, SVG Export Plug-In . SVG Version: 6.00 Build 0)  -->
<svg version="1.1" id="Capa_1" xmlns="http://www.w3.org/2000/svg" xmlns:xlink="http://www.w3.org/1999/xlink" x="0px" y="0px"
	 viewBox="0 0 300 71.04" style="enable-background:new 0 0 300 71.04;" xml:space="preserve">
<style type="text/css">
	.st0{fill:#FFD400;}
	.st1{opacity:0.25;}
	.st2{clip-path:url(#SVGID_2_);}
	.st3{opacity:0.45;fill:#000033;}
	.st4{fill:#0F0F0E;}
	.st5{fill:#000033;}
	.st6{fill:none;stroke:#FF6D00;stroke-width:2;stroke-miterlimit:10;}
	.st7{fill:#FF6D00;}
	.st8{clip-path:url(#SVGID_16_);}
	.st9{clip-path:url(#SVGID_18_);}
	.st10{fill:url(#SVGID_21_);}
	.st11{fill:none;stroke:#FFD400;stroke-width:2;stroke-miterlimit:10;}
	.st12{fill:#FFFFFF;}
	.st13{clip-path:url(#SVGID_23_);}
	.st14{fill:url(#SVGID_24_);}
	.st15{fill:url(#SVGID_25_);}
	.st16{fill:none;stroke:#FFD400;stroke-width:3;stroke-miterlimit:10;}
	.st17{fill:url(#SVGID_26_);}
	.st18{fill:url(#SVGID_27_);}
	.st19{opacity:0.4;}
	.st20{fill:url(#SVGID_28_);}
	.st21{opacity:0.75;fill:url(#SVGID_29_);}
	.st22{fill:none;stroke:#FFFFFF;stroke-width:3;stroke-miterlimit:10;}
	.st23{opacity:0.8;fill:#FFD400;}
	.st24{fill:#00005B;}
	.st25{fill:#E9E9E9;}
	.st26{opacity:0.5;}
	.st27{fill:#6F6F6E;}
	.st28{clip-path:url(#SVGID_31_);}
	.st29{fill:#222220;}
	.st30{opacity:0.4;fill:#222220;}
	.st31{fill:none;stroke:#838382;stroke-miterlimit:10;}
	.st32{fill:#FFFFFF;stroke:#FFD400;stroke-width:2;stroke-miterlimit:10;}
	.st33{fill:url(#SVGID_32_);}
</style>
<g id="logo-166x50-es_1_">
	<g id="Group_1_" transform="translate(12.000000, 1.000000)">
		<path id="Path_9_" class="st27" d="M32.26,18.9L32.26,18.9l5.27-5.29l0,0L49.46,1.69C41.23,3.57,33.69,7.7,27.67,13.61h-32
			c-1.7,0-3.08,1.38-3.08,3.08v38.77c0,1.7,1.38,3.09,3.08,3.09h38.78c1.7,0,3.08-1.38,3.08-3.09V23.51l-5.27,5.27V53.3H-2.14V18.9
			h25.18c-3.83,5.11-6.55,10.97-7.98,17.2L32.26,18.9z"/>
		<polygon id="Path_8_" class="st27" points="130.78,26.07 130.78,52.59 115.56,26.06 110.39,26.06 110.39,58.55 114.37,58.55 
			114.37,32.03 129.59,58.56 134.76,58.56 134.76,26.07 		"/>
		<path id="Path_7_" class="st27" d="M87.91,26.06v22.22c-0.26,4.34-3.76,7.72-7.99,7.72s-7.72-3.38-7.99-7.72V26.06h-4.2v22.22
			c0.13,6.83,5.55,12.3,12.19,12.3s12.06-5.47,12.19-12.3V26.06H87.91z"/>
		<path id="Path_6_" class="st27" d="M242.27,26.06v22.07c-0.24,4.33-3.75,7.71-7.99,7.71s-7.74-3.38-7.99-7.71V26.06h-4.2v22.07
			c0,6.88,5.46,12.46,12.19,12.46s12.19-5.58,12.19-12.46V26.06H242.27z"/>
		<rect id="Rectangle_1_" x="155.07" y="26.06" class="st27" width="4.06" height="32.5"/>
		<polygon id="Path_5_" class="st27" points="280.99,30.21 280.99,26.06 262.72,26.06 262.72,58.56 280.99,58.56 280.99,54.4 
			267,54.4 267,43.98 280.49,43.98 280.49,39.82 267,39.82 267,30.21 		"/>
		<path id="Shape_1_" class="st27" d="M202.02,55.44c7-6.55,7.71-17.39,1.61-24.78c-6.1-7.39-16.91-8.8-24.71-3.22
			c-7.8,5.58-9.92,16.23-4.84,24.36c5.08,8.12,15.61,10.93,24.08,6.41l7.51,4.41l2.21-3.74L202.02,55.44z M189.59,28.7
			c7.57,0,13.71,6.12,13.71,13.66s-6.14,13.66-13.71,13.66s-13.71-6.12-13.71-13.66C175.89,34.82,182.03,28.71,189.59,28.7
			L189.59,28.7z"/>
	</g>
</g>
</svg>
