<?xml version="1.0" encoding="utf-8"?>
<!-- Generator: Adobe Illustrator 24.1.0, SVG Export Plug-In . SVG Version: 6.00 Build 0)  -->
<svg version="1.1" id="Capa_1" xmlns="http://www.w3.org/2000/svg" xmlns:xlink="http://www.w3.org/1999/xlink" x="0px" y="0px"
	 viewBox="0 0 300 300" style="enable-background:new 0 0 300 300;" xml:space="preserve">
<style type="text/css">
	.st0{fill:#FFD400;}
	.st1{opacity:0.25;}
	.st2{clip-path:url(#SVGID_2_);}
	.st3{opacity:0.45;fill:#000033;}
	.st4{fill:#0F0F0E;}
	.st5{fill:#000033;}
	.st6{fill:none;stroke:#FF6D00;stroke-width:2;stroke-miterlimit:10;}
	.st7{fill:#FF6D00;}
	.st8{clip-path:url(#SVGID_16_);}
	.st9{clip-path:url(#SVGID_18_);}
	.st10{fill:url(#SVGID_21_);}
	.st11{fill:none;stroke:#FFD400;stroke-width:2;stroke-miterlimit:10;}
	.st12{fill:#FFD400;}
	.st13{clip-path:url(#SVGID_23_);}
	.st14{fill:url(#SVGID_24_);}
	.st15{fill:url(#SVGID_25_);}
	.st16{fill:none;stroke:#FFD400;stroke-width:3;stroke-miterlimit:10;}
	.st17{fill:url(#SVGID_26_);}
	.st18{fill:url(#SVGID_27_);}
	.st19{opacity:0.4;}
	.st20{fill:url(#SVGID_28_);}
	.st21{opacity:0.75;fill:url(#SVGID_29_);}
	.st22{fill:none;stroke:#FFFFFF;stroke-width:3;stroke-miterlimit:10;}
	.st23{opacity:0.8;fill:#FFD400;}
	.st24{fill:#00005B;}
	.st25{fill:#E9E9E9;}
	.st26{opacity:0.5;}
	.st27{fill:#6F6F6E;}
	.st28{clip-path:url(#SVGID_31_);}
	.st29{fill:#222220;}
	.st30{opacity:0.4;fill:#222220;}
	.st31{fill:none;stroke:#838382;stroke-miterlimit:10;}
	.st32{fill:#FFFFFF;stroke:#FFD400;stroke-width:2;stroke-miterlimit:10;}
	.st33{fill:url(#SVGID_32_);}
</style>
<g>
	<path class="st12" d="M212.07,82.13c7.43,0,13.48-6.05,13.48-13.48s-6.05-13.48-13.48-13.48s-13.48,6.05-13.48,13.48
		S204.64,82.13,212.07,82.13z M212.07,64.16c2.47,0,4.49,2.02,4.49,4.49c0,2.47-2.02,4.49-4.49,4.49s-4.49-2.02-4.49-4.49
		C207.57,66.18,209.59,64.16,212.07,64.16z"/>
	<path class="st12" d="M251.93,109.08l-11.42-27.12c1.9-4.05,3-8.55,3-13.31c0-12.51-7.36-23.31-17.97-28.37V19.24
		c0-4.95-4.03-8.98-8.98-8.98h-8.98c-4.95,0-8.98,4.03-8.98,8.98v21.04c-10.6,5.06-17.97,15.86-17.97,28.37c0,4.76,1.1,9.26,3,13.31
		l-11.42,27.12h-23.02V10.26h-53.9v98.82H86.3V49.32L63.84,15.63L41.38,49.32v59.76H9.93v141.11l38.57,38.57h239.93V109.08H251.93z
		 M260.98,153.73c0.33,0.77,0.49,1.59,0.49,2.44v0.5c0,3.48-2.83,6.31-6.31,6.31c-2.54,0-4.83-1.51-5.81-3.85l-25.78-61.24
		c4.11-1.63,7.81-4.08,10.87-7.18L260.98,153.73z M261.48,198.91v44.92h-53.9v-44.92H261.48z M212.07,100.09
		c0.89,0,1.77-0.06,2.64-0.13l10.21,24.26c-8.12,3.61-17.59,3.61-25.7,0l10.21-24.26C210.3,100.03,211.18,100.09,212.07,100.09z
		 M207.57,19.24h8.98v18.33c-1.47-0.21-2.97-0.36-4.49-0.36c-1.53,0-3.02,0.15-4.49,0.36V19.24z M212.07,46.19
		c12.38,0,22.46,10.08,22.46,22.46s-10.08,22.46-22.46,22.46c-12.38,0-22.46-10.08-22.46-22.46S199.68,46.19,212.07,46.19z
		 M200.56,97.88l-25.79,61.24c-0.98,2.34-3.26,3.85-5.81,3.85c-3.48,0-6.31-2.83-6.31-6.31v-0.5c0-0.84,0.17-1.66,0.49-2.44
		l26.54-63.02C192.74,93.8,196.44,96.26,200.56,97.88z M36.89,189.93h40.43v26.95h22.46v8.98H36.89V189.93z M86.3,207.9v-26.95
		H36.89v-8.98h26.95v-4.49c0-7.43,6.05-13.48,13.48-13.48h4.49v-17.97h8.98v40.43h53.9v-40.43h16.17l-5.98,14.21
		c-0.8,1.89-1.2,3.88-1.2,5.93v0.5c0,6.18,3.7,11.48,8.98,13.89v12.88c-2.65-1.55-5.7-2.5-8.98-2.5c-9.91,0-17.97,8.06-17.97,17.97
		s8.06,17.97,17.97,17.97c9.91,0,17.97-8.06,17.97-17.97V171.7c3.53-0.62,6.7-2.44,8.98-5.15v59.31h-71.87V207.9H86.3z
		 M36.89,162.98v-26.95h35.93v9.44c-8.79,1.79-15.73,8.73-17.51,17.51H36.89z M99.77,136.03h35.93v31.44H99.77V136.03z
		 M162.66,198.91c0,4.95-4.03,8.98-8.98,8.98c-4.95,0-8.98-4.03-8.98-8.98c0-4.95,4.03-8.98,8.98-8.98
		C158.63,189.93,162.66,193.96,162.66,198.91z M104.26,19.24h35.93v8.98h-17.97v8.98h17.97v8.98h-8.98v8.98h8.98v8.98h-17.97v8.98
		h17.97v8.98h-8.98v8.98h8.98v17.97h-35.93V19.24z M68.33,109.08v-53.9h8.98v53.9H68.33z M73.41,46.19H54.26l9.57-14.36L73.41,46.19
		z M50.36,55.17h8.98v53.9h-8.98V55.17z M45.87,273.41l-20.6-20.6h20.6V273.41z M279.44,279.76H54.85v-35.93H18.92V118.06h149.5
		l-3.78,8.98H27.9v107.8h161.7v-87.81l6.11-14.52c5.15,2.29,10.71,3.51,16.35,3.51s11.2-1.22,16.35-3.51l12.67,30.09
		c2.04,4.84,6.36,8.2,11.41,9.1v18.23h-53.9v62.89h71.87v-62.89h-8.98v-19.37c5.28-2.41,8.98-7.72,8.98-13.89v-0.5
		c0-2.05-0.4-4.05-1.2-5.93l-13.55-32.18h23.73V279.76z"/>
	<path class="st12" d="M63.84,270.78h98.82v-26.95H63.84V270.78z M117.74,261.8h-8.98v-8.98h8.98V261.8z M126.72,252.81h8.98v8.98
		h-8.98V252.81z M99.77,261.8h-8.98v-8.98h8.98V261.8z M153.67,261.8h-8.98v-8.98h8.98V261.8z M72.82,252.81h8.98v8.98h-8.98V252.81
		z"/>
	<path class="st12" d="M171.64,261.8h98.82v8.98h-98.82V261.8z"/>
</g>
</svg>
