<?xml version="1.0" encoding="utf-8"?>
<!-- Generator: Adobe Illustrator 24.1.0, SVG Export Plug-In . SVG Version: 6.00 Build 0)  -->
<svg version="1.1" id="Capa_1" xmlns="http://www.w3.org/2000/svg" xmlns:xlink="http://www.w3.org/1999/xlink" x="0px" y="0px"
	 viewBox="0 0 300 300" style="enable-background:new 0 0 300 300;" xml:space="preserve">
<style type="text/css">
	.st0{fill:#FFF;}
	.st1{opacity:0.25;}
	.st2{clip-path:url(#SVGID_2_);}
	.st3{opacity:0.45;fill:#000033;}
	.st4{fill:#0F0F0E;}
	.st5{fill:#000033;}
	.st6{fill:none;stroke:#FF6D00;stroke-width:2;stroke-miterlimit:10;}
	.st7{fill:#FF6D00;}
	.st8{clip-path:url(#SVGID_16_);}
	.st9{clip-path:url(#SVGID_18_);}
	.st10{fill:url(#SVGID_21_);}
	.st11{fill:none;stroke:#FFD400;stroke-width:2;stroke-miterlimit:10;}
	.st12{fill:#FFFFFF;}
	.st13{clip-path:url(#SVGID_23_);}
	.st14{fill:url(#SVGID_24_);}
	.st15{fill:url(#SVGID_25_);}
	.st16{fill:none;stroke:#FFD400;stroke-width:3;stroke-miterlimit:10;}
	.st17{fill:url(#SVGID_26_);}
	.st18{fill:url(#SVGID_27_);}
	.st19{opacity:0.4;}
	.st20{fill:url(#SVGID_28_);}
	.st21{opacity:0.75;fill:url(#SVGID_29_);}
	.st22{fill:none;stroke:#FFFFFF;stroke-width:3;stroke-miterlimit:10;}
	.st23{opacity:0.8;fill:#FFD400;}
	.st24{fill:#00005B;}
	.st25{fill:#E9E9E9;}
	.st26{opacity:0.5;}
	.st27{fill:#6F6F6E;}
	.st28{clip-path:url(#SVGID_31_);}
	.st29{fill:#222220;}
	.st30{opacity:0.4;fill:#222220;}
	.st31{fill:none;stroke:#838382;stroke-miterlimit:10;}
	.st32{fill:#FFFFFF;stroke:#FFD400;stroke-width:2;stroke-miterlimit:10;}
	.st33{fill:url(#SVGID_32_);}
</style>
<g>
	<path class="st0" d="M243.55,162.55h-46.89v-23.65h-62.2l-23.88,23.65H9.44v84.69h101.23l23.65,23.88h27.08v-8.38H137.8
		l-23.65-23.88H17.81v-67.94h96.2l23.88-23.65h50.38v22.58h-10.11v8.38h10.11v15.53h-7.97l-12.24-12.24v-24.91h-8.38v18.94
		l-10.23,10.23h-18.73v8.38h22.2l7.96-7.96l15.95,15.95h11.44v20.75h4.21v25.98h2.06v22.25h43.12v-22.24h5.88V222.9h6.5v-34.36h-6.5
		V162.55z M196.65,170.93h38.52v17.61h-38.52V170.93z M229.29,262.75h-26.37v-13.87h26.37V262.75z M235.17,240.5h-34.3V222.9h34.3
		V240.5z M241.66,214.52h-45.01v-17.61h45.01V214.52z"/>
	<path class="st0" d="M262.73,7.96l-9.47,9.47v2.4h-14.64v-4.86l-7.02-7.02H116.39L90.8,33.55v34.91h21.85l11.1-11.1V47.2l6.29-6.29
		h16.71v27.5l7.02,7.02h77.84l7.02-7.02v-4.86h14.64v2.4l9.47,9.47h32.64V7.96H262.73z M146.75,32.53h-20.18l-11.2,11.2V53.9
		l-6.19,6.19H99.18V37.02l20.69-20.68h26.89V32.53z M230.24,64.94l-2.11,2.11h-70.9l-2.11-2.11V18.45l2.11-2.11h70.9l2.11,2.11
		L230.24,64.94L230.24,64.94z M253.26,55.17h-14.64V28.21h14.64V55.17z M287,67.05H266.2l-4.57-4.57V20.9l4.57-4.57h3.92v25.35h8.38
		V16.34H287V67.05z"/>
	<path class="st0" d="M168.37,82.4h8.38v49.52h-8.38V82.4z"/>
	<path class="st0" d="M208.62,82.4H217v73.17h-8.38V82.4z"/>
	<path class="st0" d="M208.62,279.6l-5.92,5.92h-20.03l-5.92-5.92v-71.86h-8.38v20.51l-13.73-13.73h-23.91v8.38h20.44l17.2,17.21
		v42.97l10.83,10.83h26.97L217,283.07v-4.96h-8.38V279.6z"/>
	<path class="st0" d="M216.28,21.74h8.38v8.38h-8.38V21.74z"/>
	<path class="st0" d="M216.28,35.7h8.38v8.38h-8.38V35.7z"/>
	<path class="st0" d="M216.28,53.08h-35.77v8.38h44.14v-11.8h-8.38V53.08z"/>
	<path class="st0" d="M91.53,224.91v8.38h24.95l22.42,22.64l5.95-5.89l-24.88-25.12H91.53z"/>
	<path class="st0" d="M63.61,224.91h8.38v8.38h-8.38V224.91z"/>
	<path class="st0" d="M77.57,224.91h8.38v8.38h-8.38V224.91z"/>
	<path class="st0" d="M194.66,99.16h8.38v8.38h-8.38V99.16z"/>
	<path class="st0" d="M194.66,85.2h8.38v8.38h-8.38V85.2z"/>
	<path class="st0" d="M194.66,113.12h8.38v19.38h-8.38V113.12z"/>
</g>
</svg>
