<?xml version="1.0" encoding="utf-8"?>
<!-- Generator: Adobe Illustrator 24.1.0, SVG Export Plug-In . SVG Version: 6.00 Build 0)  -->
<svg version="1.1" id="Capa_1" xmlns="http://www.w3.org/2000/svg" xmlns:xlink="http://www.w3.org/1999/xlink" x="0px" y="0px"
	 viewBox="0 0 300 300" style="enable-background:new 0 0 300 300;" xml:space="preserve">
<style type="text/css">
	.st0{fill:#FFD400;}
	.st1{opacity:0.25;}
	.st2{clip-path:url(#SVGID_2_);}
	.st3{opacity:0.45;fill:#000033;}
	.st4{fill:#0F0F0E;}
	.st5{fill:#000033;}
	.st6{fill:none;stroke:#FF6D00;stroke-width:2;stroke-miterlimit:10;}
	.st7{fill:#FF6D00;}
	.st8{clip-path:url(#SVGID_16_);}
	.st9{clip-path:url(#SVGID_18_);}
	.st10{fill:url(#SVGID_21_);}
	.st11{fill:none;stroke:#FFD400;stroke-width:2;stroke-miterlimit:10;}
	.st12{fill:#FFFFFF;}
	.st13{clip-path:url(#SVGID_23_);}
	.st14{fill:url(#SVGID_24_);}
	.st15{fill:url(#SVGID_25_);}
	.st16{fill:none;stroke:#FFD400;stroke-width:3;stroke-miterlimit:10;}
	.st17{fill:url(#SVGID_26_);}
	.st18{fill:url(#SVGID_27_);}
	.st19{opacity:0.4;}
	.st20{fill:url(#SVGID_28_);}
	.st21{opacity:0.75;fill:url(#SVGID_29_);}
	.st22{fill:none;stroke:#FFFFFF;stroke-width:3;stroke-miterlimit:10;}
	.st23{opacity:0.8;fill:#FFD400;}
	.st24{fill:#00005B;}
	.st25{fill:#E9E9E9;}
	.st26{opacity:0.5;}
	.st27{fill:#6F6F6E;}
	.st28{clip-path:url(#SVGID_31_);}
	.st29{fill:#222220;}
	.st30{opacity:0.4;fill:#222220;}
	.st31{fill:none;stroke:#838382;stroke-miterlimit:10;}
	.st32{fill:#FFFFFF;stroke:#FFD400;stroke-width:2;stroke-miterlimit:10;}
	.st33{fill:url(#SVGID_32_);}
</style>
<g>
	<g>
		<path class="st12" d="M149.39,10.23C70.82,10.23,6.9,74.15,6.9,152.72s63.92,142.49,142.49,142.49
			c38.06,0,73.84-14.82,100.76-41.73c-3.52-3.29-6.64-6.31-8.4-8.4c-24.66,24.67-57.47,38.26-92.36,38.26
			c-72.02,0-130.62-58.59-130.62-130.62S77.37,22.1,149.39,22.1S280.01,80.7,280.01,152.72v17.81c0,16.37-13.31,29.69-29.69,29.69
			h-17.81v-8.82c0-8-6.52-14.51-14.52-14.51c-9.85,0-19.53-1.54-28.69-4.56c-5.14-1.79-10.98-0.41-14.25,2.93l-17.65,13.34
			c-20.33-11-33.05-23.71-43.89-43.88l12.8-17.04c3.86-3.86,5.25-9.5,3.58-14.81c-3.04-9.19-4.58-18.87-4.58-28.75
			c0-8-6.52-14.51-14.52-14.51H80.79c-8,0-14.52,6.51-14.52,14.51c0,83.67,68.06,151.73,151.72,151.73c8,0,14.52-6.51,14.52-14.51
			v-9.24h17.81c22.91,0,41.56-18.65,41.56-41.56v-17.81C291.88,74.15,227.97,10.23,149.39,10.23z M220.64,221.33
			c0,1.43-1.21,2.64-2.64,2.64c-77.11,0-139.85-62.74-139.85-139.85c0-1.43,1.21-2.64,2.64-2.64h30.01c1.44,0,2.64,1.21,2.64,2.64
			c0,11.16,1.74,22.08,5.15,32.39c0.15,0.48,0.39,1.71-1.22,3.39l-15.61,20.67c-1.37,1.81-1.58,4.24-0.54,6.27
			c12.88,25.33,28.54,40.98,54.05,54.05c2.01,1.04,4.45,0.82,6.29-0.54l21.28-16.15c0.68-0.7,1.69-0.93,2.69-0.62
			c10.42,3.44,21.35,5.19,32.47,5.19c1.44,0,2.64,1.21,2.64,2.64L220.64,221.33L220.64,221.33z"/>
	</g>
</g>
</svg>
