<?xml version="1.0" encoding="utf-8"?>
<!-- Generator: Adobe Illustrator 24.1.0, SVG Export Plug-In . SVG Version: 6.00 Build 0)  -->
<svg version="1.1" id="Capa_1" xmlns="http://www.w3.org/2000/svg" xmlns:xlink="http://www.w3.org/1999/xlink" x="0px" y="0px"
	 viewBox="0 0 300 300" style="enable-background:new 0 0 300 300;" xml:space="preserve">
<style type="text/css">
	.st0{fill:#FFD400;}
	.st1{opacity:0.25;}
	.st2{clip-path:url(#SVGID_2_);}
	.st3{opacity:0.45;fill:#000033;}
	.st4{fill:#0F0F0E;}
	.st5{fill:#000033;}
	.st6{fill:none;stroke:#FF6D00;stroke-width:2;stroke-miterlimit:10;}
	.st7{fill:#FF6D00;}
	.st8{clip-path:url(#SVGID_16_);}
	.st9{clip-path:url(#SVGID_18_);}
	.st10{fill:url(#SVGID_21_);}
	.st11{fill:none;stroke:#FFD400;stroke-width:2;stroke-miterlimit:10;}
	.st12{fill:#FFFFFF;}
	.st13{clip-path:url(#SVGID_23_);}
	.st14{fill:url(#SVGID_24_);}
	.st15{fill:url(#SVGID_25_);}
	.st16{fill:none;stroke:#FFD400;stroke-width:3;stroke-miterlimit:10;}
	.st17{fill:url(#SVGID_26_);}
	.st18{fill:url(#SVGID_27_);}
	.st19{opacity:0.4;}
	.st20{fill:url(#SVGID_28_);}
	.st21{opacity:0.75;fill:url(#SVGID_29_);}
	.st22{fill:none;stroke:#FFFFFF;stroke-width:3;stroke-miterlimit:10;}
	.st23{opacity:0.8;fill:#FFD400;}
	.st24{fill:#00005B;}
	.st25{fill:#E9E9E9;}
	.st26{opacity:0.5;}
	.st27{fill:#6F6F6E;}
	.st28{clip-path:url(#SVGID_31_);}
	.st29{fill:#222220;}
	.st30{opacity:0.4;fill:#222220;}
	.st31{fill:none;stroke:#838382;stroke-miterlimit:10;}
	.st32{fill:#FFFFFF;stroke:#FFD400;stroke-width:2;stroke-miterlimit:10;}
	.st33{fill:url(#SVGID_32_);}
</style>
<g class="st26">
	<g>
		<g>
			<path class="st12" d="M160.11,42.69h-15.52c-2.76,0-5,2.24-5,5v18.63c0,2.76,2.24,5,5,5h15.52c2.76,0,5-2.24,5-5V47.69
				C165.11,44.93,162.87,42.69,160.11,42.69z M157.22,63.42h-9.73V50.59h9.73V63.42z"/>
		</g>
	</g>
	<g>
		<g>
			<path class="st12" d="M190.98,42.69h-15.52c-2.76,0-5,2.24-5,5v18.63c0,2.76,2.24,5,5,5h15.52c2.76,0,5-2.24,5-5V47.69
				C195.98,44.93,193.74,42.69,190.98,42.69z M188.08,63.42h-9.73V50.59h9.73V63.42z"/>
		</g>
	</g>
	<g>
		<g>
			<path class="st12" d="M221.84,42.69h-15.52c-2.76,0-5,2.24-5,5v18.63c0,2.76,2.24,5,5,5h15.52c2.76,0,5-2.24,5-5V47.69
				C226.84,44.93,224.6,42.69,221.84,42.69z M218.95,63.42h-9.73V50.59h9.73V63.42z"/>
		</g>
	</g>
	<g>
		<g>
			<path class="st12" d="M160.11,88.95h-15.52c-2.76,0-5,2.24-5,5v18.63c0,2.76,2.24,5,5,5h15.52c2.76,0,5-2.24,5-5V93.95
				C165.11,91.19,162.87,88.95,160.11,88.95z M157.22,109.68h-9.73V96.85h9.73V109.68z"/>
		</g>
	</g>
	<g>
		<g>
			<path class="st12" d="M190.98,88.95h-15.52c-2.76,0-5,2.24-5,5v18.63c0,2.76,2.24,5,5,5h15.52c2.76,0,5-2.24,5-5V93.95
				C195.98,91.19,193.74,88.95,190.98,88.95z M188.08,109.68h-9.73V96.85h9.73V109.68z"/>
		</g>
	</g>
	<g>
		<g>
			<path class="st12" d="M221.84,88.95h-15.52c-2.76,0-5,2.24-5,5v18.63c0,2.76,2.24,5,5,5h15.52c2.76,0,5-2.24,5-5V93.95
				C226.84,91.19,224.6,88.95,221.84,88.95z M218.95,109.68h-9.73V96.85h9.73V109.68z"/>
		</g>
	</g>
	<g>
		<g>
			<path class="st12" d="M160.11,135.21h-15.52c-2.76,0-5,2.24-5,5v18.63c0,2.76,2.24,5,5,5h15.52c2.76,0,5-2.24,5-5v-18.63
				C165.11,137.45,162.87,135.21,160.11,135.21z M157.22,155.94h-9.73v-12.83h9.73V155.94z"/>
		</g>
	</g>
	<g>
		<g>
			<path class="st12" d="M190.98,135.21h-15.52c-2.76,0-5,2.24-5,5v18.63c0,2.76,2.24,5,5,5h15.52c2.76,0,5-2.24,5-5v-18.63
				C195.98,137.45,193.74,135.21,190.98,135.21z M188.08,155.94h-9.73v-12.83h9.73V155.94z"/>
		</g>
	</g>
	<g>
		<g>
			<path class="st12" d="M221.84,135.21h-15.52c-2.76,0-5,2.24-5,5v18.63c0,2.76,2.24,5,5,5h15.52c2.76,0,5-2.24,5-5v-18.63
				C226.84,137.45,224.6,135.21,221.84,135.21z M218.95,155.94h-9.73v-12.83h9.73V155.94z"/>
		</g>
	</g>
	<g>
		<g>
			<path class="st12" d="M221.84,181.47h-15.52c-2.76,0-5,2.24-5,5v18.63c0,2.76,2.24,5,5,5h15.52c2.76,0,5-2.24,5-5v-18.63
				C226.84,183.71,224.6,181.47,221.84,181.47z M218.95,202.2h-9.73v-12.83h9.73V202.2z"/>
		</g>
	</g>
	<g>
		<g>
			<path class="st12" d="M273.54,199.06c-5.06-7.44-15.25-9.41-22.71-4.39l-10.86,7.27V32.07h0.79c2.86,0,5.18-2.33,5.18-5.18V16.76
				c0-2.86-2.33-5.18-5.18-5.18h-25.22c-2.18,0-3.95,1.77-3.95,3.95s1.77,3.95,3.95,3.95h22.5v4.7H127.17v-4.7h63.64
				c2.18,0,3.95-1.77,3.95-3.95s-1.77-3.95-3.95-3.95h-66.35c-2.86,0-5.18,2.33-5.18,5.18v10.13c0,2.86,2.33,5.18,5.18,5.18h2.01
				v50.72h-8.11v-9.75c0-3.39-2.76-6.15-6.15-6.15H82.39c-3.39,0-6.15,2.76-6.15,6.15v9.75h-5.67c-3.53,0-6.4,2.87-6.4,6.4v90.56
				c-1.67-0.11-3.35-0.16-5.03-0.16h-6.22v-2.05c0-7.66-6.23-13.89-13.89-13.89H27.01c-7.66,0-13.89,6.23-13.89,13.89v56.39
				c0,2.18,1.77,3.95,3.95,3.95s3.95-1.77,3.95-3.95v-56.39c0-3.31,2.69-6,6-6h12.01c3.31,0,6,2.69,6,6v88.85c0,3.31-2.69,6-6,6
				H27.01c-3.31,0-6-2.69-6-6v-7.75c0-2.18-1.77-3.95-3.95-3.95s-3.95,1.77-3.95,3.95v7.75c0,7.66,6.23,13.89,13.89,13.89h12.01
				c7.66,0,13.89-6.23,13.89-13.89v-0.23l54.68,20.71c0.11,0.04,0.22,0.08,0.33,0.11c2.4,0.68,4.8,1.02,7.18,1.02
				c1.29,0,2.58-0.1,3.86-0.3c0,0,0,0,0.01,0l80.71-11.63c0.02,0,0.04-0.01,0.06-0.01c6.9-1.1,13.41-4.02,18.82-8.43
				c0.05-0.04,0.1-0.08,0.14-0.12l52.17-46.92C277.01,215.1,278.16,205.86,273.54,199.06z M134.36,32.07h97.71v175.15l-32.85,21.99
				l-11.02-0.62l-0.28-2.82c-0.21-2.07-0.67-4.06-1.36-5.94c-0.23-0.63-0.49-1.24-0.76-1.84c-0.42-0.9-0.89-1.77-1.42-2.61
				c-1.24-1.97-2.75-3.75-4.5-5.28h11.1c2.76,0,5-2.24,5-5v-18.63c0-2.76-2.24-5-5-5h-15.52c-2.76,0-5,2.24-5,5v18.54
				c-1-0.28-2.02-0.49-3.07-0.64c-0.03,0-0.07-0.01-0.1-0.01l-2.17-0.25v-17.64c0-2.76-2.24-5-5-5h-15.52c-2.76,0-5,2.24-5,5v14.7
				l-5.23-0.6L134.36,32.07L134.36,32.07z M178.35,202.2v-12.83h9.73v12.83H178.35z M157.22,189.36v12.83h-8.67l-1.06-0.12v-12.71
				H157.22z M84.13,74.79h26.33v8H84.13V74.79z M72.06,90.69L72.06,90.69h54.4v12.35h-44.6c-2.55,0-4.63,2.08-4.63,4.63v11.92
				c0,2.55,2.08,4.63,4.63,4.63h44.6v11.11h-44.6c-2.55,0-4.63,2.08-4.63,4.63v11.92c0,2.55,2.08,4.63,4.63,4.63h44.6v11.11h-44.6
				c-2.55,0-4.63,2.08-4.63,4.63v9.43c-0.67-0.16-1.34-0.3-2.02-0.44c-0.32-0.07-0.64-0.13-0.96-0.19
				c-0.37-0.07-0.75-0.14-1.12-0.21c-0.36-0.06-0.72-0.13-1.08-0.19L72.06,90.69z M126.46,110.93v5.39H85.14v-5.39H126.46z
				 M126.46,143.23v5.39H85.14v-5.39H126.46z M85.14,180.91v-5.39h41.33v5.39H85.14z M126.46,188.8v10.85l-1.22-0.14
				c-2.55-0.36-5.06-0.86-7.54-1.49c-4.8-1.22-9.44-2.92-13.89-5.11c-0.59-0.29-1.18-0.59-1.76-0.9c-0.95-0.5-1.9-1.02-2.84-1.57
				c-0.69-0.4-1.38-0.79-2.08-1.17c-0.15-0.08-0.3-0.16-0.45-0.25c-0.14-0.07-0.28-0.15-0.42-0.22L126.46,188.8L126.46,188.8z
				 M265.6,214.67l-52.11,46.87c-4.32,3.5-9.49,5.81-14.98,6.69l-80.71,11.63c-0.02,0-0.09,0.01-0.11,0.02
				c-2.41,0.38-4.93,0.22-7.48-0.48l-57.31-21.7v-70.23h6.22c2.86,0,5.72,0.18,8.54,0.52c0.57,0.07,1.15,0.15,1.72,0.23
				c0.08,0.01,0.17,0.02,0.25,0.04c1.44,0.21,2.87,0.47,4.29,0.77c0.44,0.09,0.88,0.19,1.32,0.29c0.22,0.05,0.44,0.1,0.66,0.16
				c0.57,0.14,1.14,0.28,1.71,0.43c0.1,0.03,0.21,0.05,0.31,0.08c4.46,1.22,8.81,2.87,12.96,4.93c0.12,0.06,0.25,0.12,0.37,0.19
				c0.53,0.27,1.05,0.54,1.58,0.82c0.16,0.09,0.32,0.17,0.48,0.26c0.63,0.34,1.25,0.69,1.87,1.05c0.01,0.01,0.02,0.01,0.03,0.02
				c1.68,0.98,3.38,1.9,5.12,2.75c7.51,3.69,15.5,6.15,23.84,7.33c0.03,0,0.07,0.01,0.1,0.01l5.67,0.65l4.62,0.53l10.65,1.23
				l2.64,0.3c0,0,0,0,0,0l18.46,2.12c7.36,1.06,13,6.96,13.74,14.36l0.14,1.38l-74.02-7.21c-2.18-0.21-4.1,1.38-4.31,3.55
				c-0.21,2.17,1.38,4.1,3.55,4.31l78.46,7.65c0.16,0.03,0.33,0.06,0.5,0.06l15.71,0.88c0.07,0,0.15,0.01,0.22,0.01
				c0.08,0,0.15-0.01,0.23-0.02c0.09-0.01,0.18-0.01,0.27-0.02c0.11-0.01,0.22-0.04,0.34-0.06c0.09-0.02,0.18-0.03,0.26-0.06
				c0.12-0.03,0.23-0.08,0.35-0.13c0.07-0.03,0.15-0.05,0.22-0.08c0.18-0.09,0.36-0.18,0.53-0.3l35.71-23.9l0,0l17.01-11.38
				c3.87-2.6,9.16-1.58,11.78,2.28C269.41,207.03,268.81,211.83,265.6,214.67z"/>
		</g>
	</g>
</g>
</svg>
