<?xml version="1.0" encoding="utf-8"?>
<!-- Generator: Adobe Illustrator 24.1.0, SVG Export Plug-In . SVG Version: 6.00 Build 0)  -->
<svg version="1.1" id="Capa_1" xmlns="http://www.w3.org/2000/svg" xmlns:xlink="http://www.w3.org/1999/xlink" x="0px" y="0px"
	 viewBox="0 0 300 300" style="enable-background:new 0 0 300 300;" xml:space="preserve">
<style type="text/css">
	.st0{fill:#FFD400;}
	.st1{opacity:0.25;}
	.st2{clip-path:url(#SVGID_2_);}
	.st3{opacity:0.45;fill:#000033;}
	.st4{fill:#0F0F0E;}
	.st5{fill:#000033;}
	.st6{fill:none;stroke:#FF6D00;stroke-width:2;stroke-miterlimit:10;}
	.st7{fill:#FF6D00;}
	.st8{clip-path:url(#SVGID_16_);}
	.st9{clip-path:url(#SVGID_18_);}
	.st10{fill:url(#SVGID_21_);}
	.st11{fill:none;stroke:#FFD400;stroke-width:2;stroke-miterlimit:10;}
	.st12{fill:#FFFFFF;}
	.st13{clip-path:url(#SVGID_23_);}
	.st14{fill:url(#SVGID_24_);}
	.st15{fill:url(#SVGID_25_);}
	.st16{fill:none;stroke:#FFD400;stroke-width:3;stroke-miterlimit:10;}
	.st17{fill:url(#SVGID_26_);}
	.st18{fill:url(#SVGID_27_);}
	.st19{opacity:0.4;}
	.st20{fill:url(#SVGID_28_);}
	.st21{opacity:0.75;fill:url(#SVGID_29_);}
	.st22{fill:none;stroke:#FFFFFF;stroke-width:3;stroke-miterlimit:10;}
	.st23{opacity:0.8;fill:#FFD400;}
	.st24{fill:#00005B;}
	.st25{fill:#E9E9E9;}
	.st26{opacity:0.5;}
	.st27{fill:#6F6F6E;}
	.st28{clip-path:url(#SVGID_31_);}
	.st29{fill:#222220;}
	.st30{opacity:0.4;fill:#222220;}
	.st31{fill:none;stroke:#838382;stroke-miterlimit:10;}
	.st32{fill:#FFFFFF;stroke:#FFD400;stroke-width:2;stroke-miterlimit:10;}
	.st33{fill:url(#SVGID_32_);}
</style>
<g class="st26">
	<g>
		<g>
			<path class="st12" d="M277.17,112.02l-22.76-4.55c-1.51-4.8-3.44-9.47-5.77-13.93l12.88-19.32c3.8-5.71,3.05-13.37-1.8-18.22
				l-9.76-9.76c-4.85-4.85-12.51-5.61-18.22-1.8l-19.32,12.88c-4.46-2.33-9.12-4.26-13.93-5.77l-4.55-22.76
				c-1.35-6.73-7.3-11.61-14.16-11.61h-13.8c-6.86,0-12.81,4.88-14.16,11.61l-4.55,22.76c-4.8,1.51-9.47,3.44-13.93,5.77
				l-19.32-12.88c-5.71-3.8-13.37-3.05-18.22,1.8L86.03,56c-4.85,4.85-5.61,12.51-1.8,18.22L97.1,93.54
				c-2.33,4.46-4.26,9.12-5.77,13.93l-22.76,4.55c-6.73,1.35-11.61,7.3-11.61,14.16v13.8c0,6.86,4.88,12.81,11.61,14.16l14.74,2.95
				c2.33,0.46,4.59-1.04,5.05-3.37s-1.04-4.59-3.37-5.05l-14.74-2.95c-2.73-0.54-4.71-2.96-4.71-5.74v-13.8
				c0-2.78,1.98-5.2,4.71-5.74l25.3-5.06c1.58-0.32,2.86-1.5,3.29-3.05c1.65-5.89,4.01-11.58,7.01-16.91
				c0.79-1.41,0.73-3.14-0.17-4.49L91.37,69.46c-1.54-2.31-1.23-5.42,0.73-7.39l9.76-9.76c1.97-1.97,5.07-2.27,7.39-0.73
				l21.47,14.31c1.34,0.9,3.08,0.96,4.49,0.17c5.33-3,11.01-5.36,16.91-7.01c1.56-0.44,2.74-1.71,3.05-3.29l5.06-25.3
				c0.55-2.73,2.96-4.71,5.74-4.71h13.8c2.78,0,5.2,1.98,5.74,4.71l5.06,25.3c0.32,1.59,1.5,2.86,3.05,3.29
				c5.89,1.65,11.58,4.01,16.91,7.01c1.41,0.79,3.14,0.73,4.49-0.17l21.47-14.31c2.31-1.54,5.42-1.24,7.39,0.73l9.76,9.76
				c1.97,1.97,2.27,5.07,0.73,7.39l-14.31,21.47c-0.9,1.35-0.96,3.08-0.17,4.49c3,5.33,5.36,11.01,7.01,16.91
				c0.44,1.56,1.71,2.74,3.29,3.05l25.3,5.06c2.73,0.54,4.71,2.96,4.71,5.74v13.8c0,2.78-1.98,5.2-4.71,5.74l-25.3,5.06
				c-1.58,0.32-2.86,1.5-3.29,3.05c-1.65,5.89-4.01,11.58-7.01,16.91c-0.79,1.41-0.73,3.14,0.17,4.49l14.31,21.47
				c1.54,2.31,1.23,5.42-0.73,7.39l-9.76,9.76c-1.97,1.97-5.07,2.27-7.39,0.73l-21.47-14.31c-1.97-1.32-4.64-0.78-5.95,1.19
				c-1.32,1.97-0.78,4.64,1.19,5.95l21.47,14.31c2.43,1.62,5.22,2.42,8,2.42c3.73,0,7.44-1.44,10.22-4.22l9.76-9.76
				c4.85-4.85,5.61-12.51,1.8-18.22l-12.88-19.32c2.33-4.46,4.26-9.12,5.77-13.93l22.76-4.55c6.73-1.35,11.61-7.3,11.61-14.16v-13.8
				C288.78,119.32,283.9,113.37,277.17,112.02z"/>
			<path class="st12" d="M187.18,166h-40.07c-2.37,0-4.29,1.92-4.29,4.29c0,2.37,1.92,4.29,4.29,4.29h40.07
				c3.95,0,7.16,3.21,7.16,7.16v5.72c0,3.95-3.21,7.16-7.16,7.16h-40.07c-2.37,0-4.29,1.92-4.29,4.29c0,2.37,1.92,4.29,4.29,4.29
				h40.07c3.95,0,7.16,3.21,7.16,7.16v5.72c0,3.95-3.21,7.16-7.16,7.16h-40.07c-2.37,0-4.29,1.92-4.29,4.29
				c0,2.37,1.92,4.29,4.29,4.29h40.07c3.95,0,7.16,3.21,7.16,7.16v5.72c0,3.95-3.21,7.16-7.16,7.16h-40.07
				c-2.37,0-4.29,1.92-4.29,4.29s1.92,4.29,4.29,4.29h40.07c3.95,0,7.16,3.21,7.16,7.16v5.72c0,3.95-3.21,7.16-7.16,7.16h-77.76
				c-4.06,0-7.88-1.58-10.76-4.44c-4.54-4.52-10.54-7.01-16.88-7.01H71.27v-47.22c0-2.37-1.92-4.29-4.29-4.29s-4.29,1.92-4.29,4.29
				v57.24c0,0.79-0.64,1.43-1.43,1.43H48.37V221.8c0-2.37-1.92-4.29-4.29-4.29c-2.37,0-4.29,1.92-4.29,4.29v58.67H26.91
				c-0.79,0-1.43-0.64-1.43-1.43v-97.31c0-0.79,0.64-1.43,1.43-1.43h34.34c0.79,0,1.43,0.64,1.43,1.43v22.9
				c0,2.37,1.92,4.29,4.29,4.29s4.29-1.92,4.29-4.29v-12.88h10.35c6.79,0,12.79-4.33,14.93-10.76l1.6-4.8
				c4.95-14.85,7.46-30.32,7.46-45.97c0-3.95,3.21-7.16,7.16-7.16c3.44,0,6.67,1.34,9.11,3.77c2.43,2.43,3.77,5.67,3.77,9.11v45.79
				c0,2.37,1.92,4.29,4.29,4.29c2.37,0,4.29-1.92,4.29-4.29v-45.79c0-5.73-2.23-11.12-6.29-15.18c-4.05-4.05-9.44-6.29-15.18-6.29
				c-8.68,0-15.74,7.06-15.74,15.74c0,14.73-2.36,29.28-7.02,43.26l-1.6,4.8c-0.98,2.93-3.7,4.89-6.79,4.89H71.27v-1.43
				c0-5.52-4.49-10.02-10.02-10.02H26.91c-5.52,0-10.02,4.49-10.02,10.02v97.31c0,5.52,4.49,10.02,10.02,10.02h34.34
				c5.52,0,10.02-4.49,10.02-10.02v-1.43h10.51c4.06,0,7.9,1.6,10.83,4.51c4.5,4.47,10.47,6.94,16.81,6.94h77.76
				c8.68,0,15.74-7.06,15.74-15.74v-5.72c0-4.51-1.9-8.58-4.95-11.45c3.04-2.87,4.95-6.94,4.95-11.45v-5.72
				c0-4.51-1.9-8.58-4.95-11.45c3.04-2.87,4.95-6.94,4.95-11.45v-5.72c0-4.51-1.9-8.58-4.95-11.45c3.04-2.87,4.95-6.94,4.95-11.45
				v-5.72C202.92,173.06,195.86,166,187.18,166z"/>
			<path class="st12" d="M172.86,155.12c1.13,0,2.26-0.09,3.41-0.27c12.01-1.87,20.25-13.17,18.37-25.17
				c-1.87-12.01-13.17-20.25-25.17-18.37c-12.01,1.87-20.25,13.17-18.37,25.17C152.79,147.34,162.19,155.12,172.86,155.12z
				 M170.8,119.79c7.33-1.14,14.22,3.89,15.36,11.21c1.14,7.33-3.89,14.22-11.21,15.36c-7.33,1.14-14.22-3.89-15.36-11.21
				C158.44,127.83,163.47,120.94,170.8,119.79z"/>
			<path class="st12" d="M211.69,174.58c1.13,0,2.26-0.44,3.1-1.32c12.63-13.2,18.26-31.1,15.44-49.13
				c-1.43-9.16-4.89-17.58-10.29-25.04c-1.39-1.92-4.07-2.35-5.99-0.96c-1.92,1.39-2.35,4.07-0.96,5.99
				c4.59,6.35,7.54,13.53,8.76,21.34c2.4,15.36-2.4,30.62-13.16,41.87c-1.64,1.71-1.58,4.43,0.13,6.07
				C209.55,174.19,210.62,174.58,211.69,174.58z"/>
			<path class="st12" d="M208.67,92.74c1.43-1.89,1.05-4.58-0.84-6.01c-12.66-9.54-28.25-13.46-43.91-11.01
				c-17.97,2.8-33.28,13.57-42.01,29.55c-1.14,2.08-0.37,4.69,1.71,5.83c0.65,0.36,1.36,0.53,2.06,0.53c1.52,0,2.99-0.81,3.77-2.23
				c7.44-13.62,20.49-22.8,35.8-25.18c13.34-2.08,26.63,1.25,37.42,9.38C204.55,95.01,207.24,94.63,208.67,92.74z"/>
		</g>
	</g>
</g>
</svg>
