<?xml version="1.0" encoding="utf-8"?>
<!-- Generator: Adobe Illustrator 24.1.0, SVG Export Plug-In . SVG Version: 6.00 Build 0)  -->
<svg version="1.1" id="Capa_1" xmlns="http://www.w3.org/2000/svg" xmlns:xlink="http://www.w3.org/1999/xlink" x="0px" y="0px"
	 viewBox="0 0 300 300" style="enable-background:new 0 0 300 300;" xml:space="preserve">
<style type="text/css">
	.st0{fill:#FFD400;}
	.st1{opacity:0.25;}
	.st2{clip-path:url(#SVGID_2_);}
	.st3{opacity:0.45;fill:#000033;}
	.st4{fill:#0F0F0E;}
	.st5{fill:#000033;}
	.st6{fill:none;stroke:#FF6D00;stroke-width:2;stroke-miterlimit:10;}
	.st7{fill:#FF6D00;}
	.st8{clip-path:url(#SVGID_16_);}
	.st9{clip-path:url(#SVGID_18_);}
	.st10{fill:url(#SVGID_21_);}
	.st11{fill:none;stroke:#FFD400;stroke-width:2;stroke-miterlimit:10;}
	.st12{fill:#FFFFFF;}
	.st13{clip-path:url(#SVGID_23_);}
	.st14{fill:url(#SVGID_24_);}
	.st15{fill:url(#SVGID_25_);}
	.st16{fill:none;stroke:#FFD400;stroke-width:3;stroke-miterlimit:10;}
	.st17{fill:url(#SVGID_26_);}
	.st18{fill:url(#SVGID_27_);}
	.st19{opacity:0.4;}
	.st20{fill:url(#SVGID_28_);}
	.st21{opacity:0.75;fill:url(#SVGID_29_);}
	.st22{fill:none;stroke:#FFFFFF;stroke-width:3;stroke-miterlimit:10;}
	.st23{opacity:0.8;fill:#FFD400;}
	.st24{fill:#00005B;}
	.st25{fill:#E9E9E9;}
	.st26{opacity:0.5;}
	.st27{fill:#6F6F6E;}
	.st28{clip-path:url(#SVGID_31_);}
	.st29{fill:#222220;}
	.st30{opacity:0.4;fill:#222220;}
	.st31{fill:none;stroke:#838382;stroke-miterlimit:10;}
	.st32{fill:#FFFFFF;stroke:#FFD400;stroke-width:2;stroke-miterlimit:10;}
	.st33{fill:url(#SVGID_32_);}
</style>
<g>
	<g>
		<g>
			<path class="st12" d="M127.01,12.15c-55,0-99.74,44.74-99.74,99.74c0,34.15,16.24,70.86,48.28,109.12
				c4.76,5.68,9.5,10.95,14.06,15.76c-20.68,5.65-33.1,15.79-33.1,27.63c0,20.96,36.33,32.27,70.51,32.27
				c34.18,0,70.51-11.31,70.51-32.27c0-11.83-12.42-21.98-33.09-27.62c8.26-8.72,17.14-18.98,25.58-30.42
				c-2.85-2.16-7.23-4.99-9.6-7.08c-10.18,13.81-21.2,25.96-30.81,35.6c-1.1,0.56-2.02,1.46-2.6,2.58
				c-8.61,8.46-15.86,14.74-19.97,18.17c-4.07-3.4-11.2-9.59-19.71-17.95c-0.61-1.34-1.68-2.39-2.99-2.97
				C77.29,207.54,39.2,160.59,39.2,111.89c0-48.42,39.39-87.81,87.81-87.81s87.81,39.39,87.81,87.81c0,21.14-7.2,43.98-21.41,67.87
				c2.62,2.05,7.77,4.75,10.25,6.1c15.32-25.76,23.09-50.65,23.09-73.97C226.75,56.89,182,12.15,127.01,12.15z M123.36,268.04
				c1.07,0.83,2.36,1.25,3.65,1.25c1.29,0,2.58-0.42,3.65-1.25c0.73-0.57,10.7-8.34,23.99-21.33c20.12,4.1,30.94,12,30.94,17.69
				c0,4.25-5.82,9.26-15.19,13.07c-11.49,4.68-26.9,7.26-43.39,7.26c-35.76,0-58.58-12.05-58.58-20.34
				c0-5.69,10.82-13.59,30.95-17.69C112.74,259.78,122.72,267.55,123.36,268.04z"/>
		</g>
	</g>
	<g>
		<g>
			<path class="st12" d="M127.01,68.52c-9.44,0-18.41,2.98-25.95,8.61c1.55,2.41,4.98,6.61,7.14,9.56
				c5.46-4.08,11.96-6.24,18.8-6.24c17.33,0,31.44,14.1,31.44,31.44c0,17.33-14.1,31.44-31.44,31.44s-31.44-14.1-31.44-31.44
				c0-2.96,0.41-5.88,1.22-8.69c-2.95-0.88-9.46-2.67-11.47-3.29c-1.11,3.88-1.68,7.91-1.68,11.98c0,23.91,19.45,43.37,43.37,43.37
				c23.91,0,43.37-19.45,43.37-43.37C170.37,87.98,150.92,68.52,127.01,68.52z"/>
		</g>
	</g>
</g>
</svg>
