<?xml version="1.0" encoding="utf-8"?>
<!-- Generator: Adobe Illustrator 24.1.2, SVG Export Plug-In . SVG Version: 6.00 Build 0)  -->
<svg version="1.1" id="Capa_1" xmlns="http://www.w3.org/2000/svg" xmlns:xlink="http://www.w3.org/1999/xlink" x="0px" y="0px"
	 viewBox="0 0 512 512" style="enable-background:new 0 0 512 512;" xml:space="preserve">
<style type="text/css">
	.st0{fill:#FFD400;}
</style>
<g>
	<g>
		<g>
			<path class="st0" d="M154.5,145.7h-48c-5.5,0-10,4.5-10,10v56c0,5.5,4.5,10,10,10h48c5.5,0,10-4.5,10-10v-56
				C164.5,150.2,160,145.7,154.5,145.7z M144.5,201.7h-28v-36h28V201.7z"/>
		</g>
	</g>
	<g>
		<g>
			<path class="st0" d="M154.5,257.7h-48c-5.5,0-10,4.5-10,10v56c0,5.5,4.5,10,10,10h48c5.5,0,10-4.5,10-10v-56
				C164.5,262.2,160,257.7,154.5,257.7z M144.5,313.7h-28v-36h28V313.7z"/>
		</g>
	</g>
	<g>
		<g>
			<path class="st0" d="M154.5,369.7h-48c-5.5,0-10,4.5-10,10v56c0,5.5,4.5,10,10,10h48c5.5,0,10-4.5,10-10v-56
				C164.5,374.2,160,369.7,154.5,369.7z M144.5,425.7h-28v-36h28V425.7z"/>
		</g>
	</g>
	<g>
		<g>
			<path class="st0" d="M415.5,369.7h-48c-5.5,0-10,4.5-10,10v56c0,5.5,4.5,10,10,10h48c5.5,0,10-4.5,10-10v-56
				C425.5,374.2,421,369.7,415.5,369.7z M405.5,425.7h-28v-36h28V425.7z"/>
		</g>
	</g>
	<g>
		<g>
			<path class="st0" d="M241.5,145.7h-48c-5.5,0-10,4.5-10,10v56c0,5.5,4.5,10,10,10h48c5.5,0,10-4.5,10-10v-56
				C251.5,150.2,247,145.7,241.5,145.7z M231.5,201.7h-28v-36h28V201.7z"/>
		</g>
	</g>
	<g>
		<g>
			<path class="st0" d="M328.5,145.7h-48c-5.5,0-10,4.5-10,10v56c0,5.5,4.5,10,10,10h48c5.5,0,10-4.5,10-10v-56
				C338.5,150.2,334,145.7,328.5,145.7z M318.5,201.7h-28v-36h28V201.7z"/>
		</g>
	</g>
	<g>
		<g>
			<path class="st0" d="M241.5,257.7h-48c-5.5,0-10,4.5-10,10v56c0,5.5,4.5,10,10,10h48c5.5,0,10-4.5,10-10v-56
				C251.5,262.2,247,257.7,241.5,257.7z M231.5,313.7h-28v-36h28V313.7z"/>
		</g>
	</g>
	<g>
		<g>
			<path class="st0" d="M328.5,257.7h-48c-5.5,0-10,4.5-10,10v56c0,5.5,4.5,10,10,10h48c5.5,0,10-4.5,10-10v-56
				C338.5,262.2,334,257.7,328.5,257.7z M318.5,313.7h-28v-36h28V313.7z"/>
		</g>
	</g>
	<g>
		<g>
			<path class="st0" d="M415.5,145.7h-48c-5.5,0-10,4.5-10,10v56c0,5.5,4.5,10,10,10h48c5.5,0,10-4.5,10-10v-56
				C425.5,150.2,421,145.7,415.5,145.7z M405.5,201.7h-28v-36h28V201.7z"/>
		</g>
	</g>
	<g>
		<g>
			<path class="st0" d="M415.5,257.7h-48c-5.5,0-10,4.5-10,10v56c0,5.5,4.5,10,10,10h48c5.5,0,10-4.5,10-10v-56
				C425.5,262.2,421,257.7,415.5,257.7z M405.5,313.7h-28v-36h28V313.7z"/>
		</g>
	</g>
	<g>
		<g>
			<path class="st0" d="M502,492h-37.5V104.1c0-5.5-4.5-10-10-10H399V58c0-5.5-4.5-10-10-10h-55V10c0-5.5-4.5-10-10-10H188
				c-5.5,0-10,4.5-10,10v38h-55c-5.5,0-10,4.5-10,10v36.1H57.5c-5.5,0-10,4.5-10,10V492H10c-5.5,0-10,4.5-10,10s4.5,10,10,10h492
				c5.5,0,10-4.5,10-10S507.5,492,502,492z M198,20h116v28H198V20z M298,492h-69.2l69.2-69.2V492z M298,394.6
				c-0.2,0.2-0.4,0.4-0.7,0.6L214,478.5v-42.4l64.1-64.1H298V394.6z M214,407.9V372h35.9L214,407.9z M444.5,492h-67H318V372h3.5
				c5.5,0,10-4.5,10-10s-4.5-10-10-10h-131c-5.5,0-10,4.5-10,10s4.5,10,10,10h3.5v120H67.5V114.1h111c5.5,0,10-4.5,10-10
				s-4.5-10-10-10H133V68h246v26.1H257.5c-5.5,0-10,4.5-10,10s4.5,10,10,10h187L444.5,492L444.5,492z"/>
		</g>
	</g>
	<g>
		<g>
			<path class="st0" d="M224.6,97c-1.9-1.9-4.4-2.9-7.1-2.9s-5.2,1.1-7.1,2.9s-2.9,4.4-2.9,7.1s1.1,5.2,2.9,7.1
				c1.9,1.9,4.4,2.9,7.1,2.9s5.2-1.1,7.1-2.9c1.9-1.9,2.9-4.4,2.9-7.1S226.4,98.8,224.6,97z"/>
		</g>
	</g>
</g>
</svg>
