<?xml version="1.0" encoding="utf-8"?>
<!-- Generator: Adobe Illustrator 24.1.0, SVG Export Plug-In . SVG Version: 6.00 Build 0)  -->
<svg version="1.1" id="Capa_1" xmlns="http://www.w3.org/2000/svg" xmlns:xlink="http://www.w3.org/1999/xlink" x="0px" y="0px"
	 viewBox="0 0 300 300" style="enable-background:new 0 0 300 300;" xml:space="preserve">
<style type="text/css">
	.st0{fill:#fff;}
	.st1{opacity:0.25;}
	.st2{clip-path:url(#SVGID_2_);}
	.st3{opacity:0.45;fill:#000033;}
	.st4{fill:#0F0F0E;}
	.st5{fill:#000033;}
	.st6{fill:none;stroke:#FF6D00;stroke-width:2;stroke-miterlimit:10;}
	.st7{fill:#FF6D00;}
	.st8{clip-path:url(#SVGID_16_);}
	.st9{clip-path:url(#SVGID_18_);}
	.st10{fill:url(#SVGID_21_);}
	.st11{fill:none;stroke:#FFD400;stroke-width:2;stroke-miterlimit:10;}
	.st12{fill:#FFFFFF;}
	.st13{clip-path:url(#SVGID_23_);}
	.st14{fill:url(#SVGID_24_);}
	.st15{fill:url(#SVGID_25_);}
	.st16{fill:none;stroke:#FFD400;stroke-width:3;stroke-miterlimit:10;}
	.st17{fill:url(#SVGID_26_);}
	.st18{fill:url(#SVGID_27_);}
	.st19{opacity:0.4;}
	.st20{fill:url(#SVGID_28_);}
	.st21{opacity:0.75;fill:url(#SVGID_29_);}
	.st22{fill:none;stroke:#FFFFFF;stroke-width:3;stroke-miterlimit:10;}
	.st23{opacity:0.8;fill:#FFD400;}
	.st24{fill:#00005B;}
	.st25{fill:#E9E9E9;}
	.st26{opacity:0.5;}
	.st27{fill:#6F6F6E;}
	.st28{clip-path:url(#SVGID_31_);}
	.st29{fill:#222220;}
	.st30{opacity:0.4;fill:#222220;}
	.st31{fill:none;stroke:#838382;stroke-miterlimit:10;}
	.st32{fill:#FFFFFF;stroke:#FFD400;stroke-width:2;stroke-miterlimit:10;}
	.st33{fill:url(#SVGID_32_);}
</style>
<g>
	<path class="st0" d="M271.12,264.16c-7.31,0-13.26,5.95-13.26,13.26c0,7.31,5.95,13.26,13.26,13.26c7.31,0,13.26-5.95,13.26-13.26
		C284.37,270.1,278.42,264.16,271.12,264.16z M271.12,281.83c-2.43,0-4.42-1.98-4.42-4.42c0-2.44,1.99-4.42,4.42-4.42
		s4.42,1.98,4.42,4.42C275.53,279.85,273.55,281.83,271.12,281.83z"/>
	<path class="st0" d="M36.89,25.51c0-7.31-5.95-13.26-13.26-13.26S10.37,18.2,10.37,25.51s5.95,13.26,13.26,13.26
		S36.89,32.82,36.89,25.51z M19.21,25.51c0-2.43,1.99-4.42,4.42-4.42s4.42,1.99,4.42,4.42s-1.99,4.42-4.42,4.42
		S19.21,27.95,19.21,25.51z"/>
	<path class="st0" d="M247.79,187.39l-8.73-17.46c1.85-3.76,3.44-7.55,4.74-11.33l18.48-6.16v-50.57l-18.48-6.16
		c-1.3-3.78-2.89-7.57-4.74-11.33l8.74-17.47l-35.75-35.75l-17.47,8.74c-3.76-1.85-7.55-3.44-11.33-4.74l-6.16-18.48h-50.57
		l-6.16,18.48c-3.78,1.3-7.57,2.89-11.33,4.74l-17.47-8.74L55.79,66.91l8.74,17.47c-1.85,3.76-3.44,7.55-4.74,11.33l-18.48,6.16
		v50.56l18.48,6.16c1.29,3.75,2.86,7.51,4.69,11.24l-5.68,10.35H32.47v88.39h30.94v-13.26h33.52l13.26,13.26h23.93v4.42
		c0,9.75,7.93,17.68,17.68,17.68c9.75,0,17.68-7.93,17.68-17.68v-4.42h30.94c7.31,0,13.26-5.95,13.26-13.26
		c0-3.41-1.33-6.49-3.45-8.84c2.12-2.35,3.45-5.43,3.45-8.84s-1.33-6.49-3.45-8.84c1.69-1.87,2.84-4.21,3.24-6.82L247.79,187.39z
		 M73.4,167.88c-2.43-4.67-4.42-9.42-5.9-14.1l-0.68-2.15l-16.67-5.56v-37.82l16.67-5.56l0.68-2.15c1.48-4.68,3.46-9.43,5.9-14.1
		l1.04-2l-7.89-15.78l26.74-26.74l15.78,7.89l2-1.04c4.67-2.44,9.42-4.42,14.1-5.9l2.15-0.68l5.57-16.68h37.82l5.56,16.67l2.15,0.68
		c4.68,1.48,9.43,3.46,14.1,5.9l2,1.04l15.78-7.89l26.74,26.74l-7.89,15.78l1.04,2c2.44,4.67,4.42,9.42,5.9,14.1l0.68,2.15
		l16.68,5.57v37.82l-16.67,5.56l-0.68,2.15c-1.48,4.68-3.47,9.43-5.9,14.1l-1.04,2l7.9,15.79l-26.11,26.32
		c-0.22-0.3-0.46-0.59-0.71-0.86c2.12-2.35,3.45-5.43,3.45-8.84c0-6.89-5.31-12.51-12.04-13.14c18.75-15.03,29.71-37.57,29.71-61.99
		c0-43.86-35.69-79.55-79.55-79.55S72.25,83.3,72.25,127.16c0,24.13,10.97,46.82,29.59,61.87h-37.8l10.46-19.06L73.4,167.88z
		 M204.83,237.64c0,2.44-1.99,4.42-4.42,4.42h-35.36c-2.43,0-4.42-1.98-4.42-4.42s1.99-4.42,4.42-4.42h35.36
		C202.84,233.22,204.83,235.2,204.83,237.64z M141.12,127.16h21.34l7.01-7.01v-19.51c4.87,0,8.84,3.96,8.84,8.84v20.27l-15.09,15.09
		h-22.86l-15.09-15.09v-20.27c0-4.87,3.96-8.84,8.84-8.84v19.51L141.12,127.16z M142.95,153.67h17.68v17.68h-17.68V153.67z
		 M169.47,151.08l17.68-17.68v-23.93c0-9.75-7.93-17.68-17.68-17.68h-8.84v24.69l-1.83,1.83h-14.02l-1.83-1.83V91.8h-8.84
		c-9.75,0-17.68,7.93-17.68,17.68v23.93l17.68,17.68v20.27h-10.67l-0.28,0.28c-15.09-9.74-24.41-26.43-24.41-44.47
		c0-29.24,23.79-53.03,53.03-53.03s53.03,23.79,53.03,53.03c0,17.91-8.95,34.32-23.93,44.19h-11.43V151.08z M213.66,127.16
		c0-34.12-27.75-61.87-61.87-61.87s-61.87,27.75-61.87,61.87c0,20.41,10.15,39.42,26.81,50.91l-6.36,6.36
		c-18.35-13.29-29.29-34.57-29.29-57.27c0-38.99,31.72-70.71,70.71-70.71s70.71,31.72,70.71,70.71c0,21.84-9.87,41.99-26.73,55.35
		c-0.5-3.13-2.1-5.87-4.4-7.87C205.46,162.95,213.66,145.73,213.66,127.16z M200.41,197.87c2.43,0,4.42,1.98,4.42,4.42
		s-1.99,4.42-4.42,4.42h-35.36c-2.43,0-4.42-1.98-4.42-4.42s1.99-4.42,4.42-4.42H200.41z M165.05,224.38
		c-2.43,0-4.42-1.98-4.42-4.42s1.99-4.42,4.42-4.42h35.36c2.43,0,4.42,1.98,4.42,4.42s-1.99,4.42-4.42,4.42H165.05z M54.57,259.74
		H41.31v-70.71h13.26V259.74z M113.85,259.74l-13.26-13.26H63.41v-48.61h46.02l17.68-17.68h55.62c2.43,0,4.42,1.98,4.42,4.42
		s-1.99,4.42-4.42,4.42h-46.02L117.73,208l6.25,6.25l10.13-10.13v55.62H113.85z M151.79,281.83c-4.87,0-8.84-3.96-8.84-8.84v-75.13
		h9.65c-0.5,1.39-0.81,2.86-0.81,4.42c0,3.41,1.33,6.49,3.45,8.84c-2.12,2.35-3.45,5.43-3.45,8.84s1.33,6.49,3.45,8.84
		c-2.12,2.35-3.45,5.43-3.45,8.84s1.33,6.49,3.45,8.84c-2.12,2.35-3.45,5.43-3.45,8.84c0,5.75,3.71,10.61,8.84,12.44v5.23
		C160.63,277.87,156.67,281.83,151.79,281.83z M200.41,259.74h-35.36c-2.43,0-4.42-1.98-4.42-4.42c0-2.44,1.99-4.42,4.42-4.42h35.36
		c2.43,0,4.42,1.98,4.42,4.42C204.83,257.76,202.84,259.74,200.41,259.74z"/>
	<path class="st0" d="M19.21,52.03h8.84v8.84h-8.84V52.03z"/>
	<path class="st0" d="M19.21,74.12h8.84v8.84h-8.84V74.12z"/>
	<path class="st0" d="M19.21,96.22h8.84v8.84h-8.84V96.22z"/>
	<path class="st0" d="M266.7,197.87h8.84v8.84h-8.84V197.87z"/>
	<path class="st0" d="M266.7,219.96h8.84v8.84h-8.84V219.96z"/>
	<path class="st0" d="M266.7,242.06h8.84v8.84h-8.84V242.06z"/>
</g>
</svg>
